<svg width="48.125" height="77" viewBox="0 0 48.125 77" fill="none" xmlns="http://www.w3.org/2000/svg"><path d="M27.094 5.619 19.312 67.891l1.719 0.215L28.813 5.834l-1.719 -0.215Z" fill="#EFEFF0"/><path d="m28.779 6.112 -0.346 2.753 -1.838 0.78 0.346 -2.763 1.838 -0.77Z" fill="#39B54A"/><path d="m28.086 11.617 -0.337 2.763 -1.848 0.78 0.346 -2.763 1.838 -0.78Z" fill="#39B54A"/><path d="m27.403 17.133 -0.346 2.763 -1.838 0.78 0.337 -2.763 1.848 -0.78Z" fill="#39B54A"/><path d="m26.71 22.647 -0.346 2.763 -1.838 0.77 0.346 -2.753 1.838 -0.78Z" fill="#39B54A"/><path d="m26.026 28.163 -0.346 2.763 -1.848 0.77 0.346 -2.753 1.848 -0.78Z" fill="#39B54A"/><path d="m25.333 33.678 -0.346 2.753 -1.838 0.78 0.346 -2.753 1.838 -0.78Z" fill="#39B54A"/><path d="m24.64 39.193 -0.337 2.753 -1.848 0.78 0.346 -2.753 1.838 -0.78Z" fill="#39B54A"/><path d="m23.956 44.708 -0.346 2.753 -1.838 0.78 0.337 -2.753 1.848 -0.78Z" fill="#39B54A"/><path d="m23.264 50.223 -0.346 2.753 -1.838 0.78 0.346 -2.753 1.838 -0.78Z" fill="#39B54A"/><path d="m22.58 55.738 -0.346 2.753 -1.848 0.78 0.346 -2.763 1.848 -0.77Z" fill="#39B54A"/><path d="m21.887 61.254 -0.346 2.753 -1.838 0.78 0.346 -2.763 1.838 -0.77Z" fill="#39B54A"/><path d="m21.194 66.759 -0.163 1.347 -1.723 -0.212 0.048 -0.356 1.838 -0.78Z" fill="#39B54A"/><path d="M37.538 34.756v3.176a0.755 0.755 0 0 1 -0.76 0.76h-0.684l-2.406 30.8h-19.25l-2.406 -30.8h-0.684a0.755 0.755 0 0 1 -0.76 -0.76v-3.186c0.222 -0.019 0.414 -0.019 0.578 0 0.77 0.096 1.906 0.385 2.637 0.289 0.732 -0.096 1.463 -0.51 2.252 -0.308 0.789 0.212 1.376 0.25 2.137 0.135 0.77 -0.116 1.8 0.212 2.82 0.193 1.02 -0.019 1.511 -0.452 2.763 -0.385 1.251 0.068 1.241 0.404 2.445 0.385 1.203 -0.019 1.376 -0.279 2.493 -0.385 1.117 -0.116 1.559 0.414 2.782 0.395 1.232 -0.029 1.126 -0.51 2.483 -0.414 1.347 0.096 1.732 0.578 2.888 0.578 0.193 0 0.423 -0.173 0.674 -0.472Z" fill="#EF4444"/><path opacity="0.5" d="M36.777 38.693H11.348a0.755 0.755 0 0 1 -0.76 -0.76v-4.736a0.755 0.755 0 0 1 0.76 -0.76h25.429a0.755 0.755 0 0 1 0.76 0.76v4.736a0.755 0.755 0 0 1 -0.76 0.76Z" fill="#C8EAFB"/><path opacity="0.3" d="M36.671 32.436c0 -6.064 -5.65 -10.972 -12.609 -10.972s-12.609 4.909 -12.609 10.972" fill="#C8EAFB"/><path opacity="0.5" d="M33.688 69.493h-19.25v1.925h19.25v-1.925Z" fill="#C8EAFB"/><path opacity="0.3" d="M33.688 69.493h-19.25l-2.406 -30.8h24.063l-2.406 30.8Z" fill="#C8EAFB"/><path opacity="0.4" d="M20.886 69.493H17.7v1.925h3.186v-1.925Z" fill="white"/><path opacity="0.4" d="M23.87 21.464s-3.176 3.08 -3.176 10.972h-4.813c0 -6.064 3.58 -10.972 7.989 -10.972Z" fill="#FFFEFF"/><path opacity="0.4" d="M20.694 38.693h-4.813a0.284 0.284 0 0 1 -0.289 -0.289V32.725c0 -0.163 0.125 -0.289 0.289 -0.289h4.813a0.284 0.284 0 0 0 -0.289 0.289v5.679c0 0.163 0.125 0.289 0.289 0.289Z" fill="white"/><path opacity="0.3" d="M20.886 69.493H17.7l-1.81 -30.8h4.803l0.193 30.8Z" fill="#C8EAFB"/><path d="M37.538 34.756v3.176a0.755 0.755 0 0 1 -0.76 0.76h-0.684l-2.406 30.8h-19.25l-2.406 -30.8h-0.684a0.755 0.755 0 0 1 -0.76 -0.76v-3.186c0.222 -0.019 0.414 -0.019 0.578 0 0.77 0.096 1.906 0.385 2.637 0.289 0.732 -0.096 1.463 -0.51 2.252 -0.308 0.789 0.212 1.376 0.25 2.137 0.135 0.77 -0.116 1.8 0.212 2.82 0.193 1.02 -0.019 1.511 -0.452 2.763 -0.385 1.251 0.068 1.241 0.404 2.445 0.385 1.203 -0.019 1.376 -0.279 2.493 -0.385 1.117 -0.116 1.559 0.414 2.782 0.395 1.232 -0.029 1.126 -0.51 2.483 -0.414 1.347 0.096 1.732 0.578 2.888 0.578 0.193 0 0.423 -0.173 0.674 -0.472Z" fill="#EF4444"/><path opacity="0.5" d="M36.777 38.693H11.348a0.755 0.755 0 0 1 -0.76 -0.76v-4.736a0.755 0.755 0 0 1 0.76 -0.76h25.429a0.755 0.755 0 0 1 0.76 0.76v4.736a0.755 0.755 0 0 1 -0.76 0.76Z" fill="#C8EAFB"/><path opacity="0.3" d="M36.671 32.436c0 -6.064 -5.65 -10.972 -12.609 -10.972s-12.609 4.909 -12.609 10.972" fill="#C8EAFB"/><path opacity="0.5" d="M33.688 69.493h-19.25v1.925h19.25v-1.925Z" fill="#C8EAFB"/><path opacity="0.3" d="M33.688 69.493h-19.25l-2.406 -30.8h24.063l-2.406 30.8Z" fill="#C8EAFB"/><path opacity="0.4" d="M20.886 69.493H17.7v1.925h3.186v-1.925Z" fill="white"/><path opacity="0.4" d="M23.87 21.464s-3.176 3.08 -3.176 10.972h-4.813c0 -6.064 3.58 -10.972 7.989 -10.972Z" fill="#FFFEFF"/><path opacity="0.4" d="M20.694 38.693h-4.813a0.284 0.284 0 0 1 -0.289 -0.289V32.725c0 -0.163 0.125 -0.289 0.289 -0.289h4.813a0.284 0.284 0 0 0 -0.289 0.289v5.679c0 0.163 0.125 0.289 0.289 0.289Z" fill="white"/><path opacity="0.3" d="M20.886 69.493H17.7l-1.81 -30.8h4.803l0.193 30.8Z" fill="#C8EAFB"/></svg>