<svg width="162.5" height="260" viewBox="0 0 162.5 260" fill="none" xmlns="http://www.w3.org/2000/svg">
  <path d="m91.487 18.974 -26.276 210.268 5.804 0.725 26.276 -210.268 -5.804 -0.725Z" fill="#EFEFF0"/>
  <path d="m97.175 20.637 -1.17 9.295 -6.207 2.633 1.17 -9.328 6.207 -2.6Z" fill="#39B54A"/>
  <path d="m94.835 39.227 -1.137 9.328 -6.24 2.633 1.17 -9.328 6.207 -2.633Z" fill="#39B54A"/>
  <path d="m92.528 57.85 -1.17 9.328 -6.207 2.633 1.137 -9.328 6.24 -2.633Z" fill="#39B54A"/>
  <path d="m90.188 76.472 -1.17 9.328 -6.207 2.6 1.17 -9.295 6.207 -2.633Z" fill="#39B54A"/>
  <path d="m87.88 95.095 -1.17 9.328 -6.24 2.6 1.17 -9.295 6.24 -2.633Z" fill="#39B54A"/>
  <path d="m85.54 113.718 -1.17 9.295 -6.207 2.633 1.17 -9.295 6.207 -2.633Z" fill="#39B54A"/>
  <path d="m83.2 132.34 -1.137 9.295 -6.24 2.633 1.17 -9.295 6.207 -2.633Z" fill="#39B54A"/>
  <path d="m80.892 150.963 -1.17 9.295 -6.207 2.633 1.137 -9.295 6.24 -2.633Z" fill="#39B54A"/>
  <path d="m78.553 169.585 -1.17 9.295 -6.207 2.633 1.17 -9.295 6.207 -2.633Z" fill="#39B54A"/>
  <path d="m76.245 188.207 -1.17 9.295 -6.24 2.633 1.17 -9.328 6.24 -2.6Z" fill="#39B54A"/>
  <path d="m73.905 206.83 -1.17 9.295 -6.207 2.633 1.17 -9.328 6.207 -2.6Z" fill="#39B54A"/>
  <path d="m71.565 225.42 -0.552 4.55 -5.817 -0.715 0.163 -1.202 6.207 -2.633Z" fill="#39B54A"/>
  <path d="M126.75 117.358v10.725c0 1.43 -1.137 2.567 -2.567 2.567h-2.308l-8.125 104H48.75l-8.125 -104h-2.308c-1.43 0 -2.567 -1.137 -2.567 -2.567V117.325c0.748 -0.065 1.397 -0.065 1.95 0 2.6 0.325 6.435 1.3 8.905 0.975 2.47 -0.325 4.94 -1.723 7.605 -1.04 2.665 0.715 4.647 0.845 7.215 0.455 2.6 -0.39 6.078 0.715 9.523 0.65 3.445 -0.065 5.103 -1.527 9.328 -1.3 4.225 0.228 4.192 1.365 8.255 1.3 4.063 -0.065 4.647 -0.942 8.418 -1.3 3.77 -0.39 5.265 1.397 9.393 1.333 4.16 -0.098 3.802 -1.723 8.385 -1.397 4.55 0.325 5.85 1.95 9.75 1.95 0.65 0 1.43 -0.585 2.275 -1.593Z" fill="#EF4444"/>
  <path opacity="0.5" d="M124.183 130.65H38.317c-1.43 0 -2.567 -1.137 -2.567 -2.567v-15.99c0 -1.43 1.137 -2.567 2.567 -2.567h85.865c1.43 0 2.567 1.137 2.567 2.567v15.99c0 1.43 -1.137 2.567 -2.567 2.567Z" fill="#C8EAFB"/>
  <path opacity="0.3" d="M123.825 109.525c0 -20.475 -19.078 -37.05 -42.575 -37.05s-42.575 16.575 -42.575 37.05" fill="#C8EAFB"/>
  <path opacity="0.5" d="M113.75 234.65H48.75v6.5h65v-6.5Z" fill="#C8EAFB"/>
  <path opacity="0.3" d="M113.75 234.65H48.75l-8.125 -104h81.25l-8.125 104Z" fill="#C8EAFB"/>
  <path opacity="0.4" d="M70.525 234.65h-10.758v6.5h10.758v-6.5Z" fill="white"/>
  <path opacity="0.4" d="M80.6 72.475s-10.725 10.4 -10.725 37.05h-16.25c0 -20.475 12.09 -37.05 26.975 -37.05Z" fill="#FFFEFF"/>
  <path opacity="0.4" d="M69.875 130.65h-16.25c-0.552 0 -0.975 -0.422 -0.975 -0.975V110.5c0 -0.552 0.422 -0.975 0.975 -0.975h16.25c-0.552 0 -0.975 0.422 -0.975 0.975v19.175c0 0.552 0.422 0.975 0.975 0.975Z" fill="white"/>
  <path opacity="0.3" d="M70.525 234.65h-10.758l-6.11 -104h16.218l0.65 104Z" fill="#C8EAFB"/>
  <path d="M126.75 117.358v10.725c0 1.43 -1.137 2.567 -2.567 2.567h-2.308l-8.125 104H48.75l-8.125 -104h-2.308c-1.43 0 -2.567 -1.137 -2.567 -2.567V117.325c0.748 -0.065 1.397 -0.065 1.95 0 2.6 0.325 6.435 1.3 8.905 0.975 2.47 -0.325 4.94 -1.723 7.605 -1.04 2.665 0.715 4.647 0.845 7.215 0.455 2.6 -0.39 6.078 0.715 9.523 0.65 3.445 -0.065 5.103 -1.527 9.328 -1.3 4.225 0.228 4.192 1.365 8.255 1.3 4.063 -0.065 4.647 -0.942 8.418 -1.3 3.77 -0.39 5.265 1.397 9.393 1.333 4.16 -0.098 3.802 -1.723 8.385 -1.397 4.55 0.325 5.85 1.95 9.75 1.95 0.65 0 1.43 -0.585 2.275 -1.593Z" fill="#EF4444"/>
  <path opacity="0.5" d="M124.183 130.65H38.317c-1.43 0 -2.567 -1.137 -2.567 -2.567v-15.99c0 -1.43 1.137 -2.567 2.567 -2.567h85.865c1.43 0 2.567 1.137 2.567 2.567v15.99c0 1.43 -1.137 2.567 -2.567 2.567Z" fill="#C8EAFB"/>
  <path opacity="0.3" d="M123.825 109.525c0 -20.475 -19.078 -37.05 -42.575 -37.05s-42.575 16.575 -42.575 37.05" fill="#C8EAFB"/>
  <path opacity="0.5" d="M113.75 234.65H48.75v6.5h65v-6.5Z" fill="#C8EAFB"/>
  <path opacity="0.3" d="M113.75 234.65H48.75l-8.125 -104h81.25l-8.125 104Z" fill="#C8EAFB"/>
  <path opacity="0.4" d="M70.525 234.65h-10.758v6.5h10.758v-6.5Z" fill="white"/>
  <path opacity="0.4" d="M80.6 72.475s-10.725 10.4 -10.725 37.05h-16.25c0 -20.475 12.09 -37.05 26.975 -37.05Z" fill="#FFFEFF"/>
  <path opacity="0.4" d="M69.875 130.65h-16.25c-0.552 0 -0.975 -0.422 -0.975 -0.975V110.5c0 -0.552 0.422 -0.975 0.975 -0.975h16.25c-0.552 0 -0.975 0.422 -0.975 0.975v19.175c0 0.552 0.422 0.975 0.975 0.975Z" fill="white"/>
  <path opacity="0.3" d="M70.525 234.65h-10.758l-6.11 -104h16.218l0.65 104Z" fill="#C8EAFB"/>
</svg>
