<?xml version="1.0" encoding="utf-8"?>
<!-- Generator: Adobe Illustrator 24.3.0, SVG Export Plug-In . SVG Version: 6.00 Build 0)  -->
<svg version="1.1" xmlns="http://www.w3.org/2000/svg" xmlns:xlink="http://www.w3.org/1999/xlink" x="0px" y="0px"
	 viewBox="0 0 42 42" style="enable-background:new 0 0 42 42;" xml:space="preserve">
<style type="text/css">
	.st0{display:none;}
	.st1{display:inline;fill:#82C10A;}
	.st2{display:inline;fill:none;stroke:#FFFFFF;stroke-width:4;stroke-linecap:round;stroke-linejoin:round;}
	.st3{display:inline;fill:#FFFFFF;}
	.st4{display:none;fill:none;stroke:#FFFFFF;stroke-width:4;stroke-linecap:round;stroke-linejoin:round;}
	.st5{fill:none;stroke:#FFFFFF;stroke-width:4;stroke-linecap:round;stroke-linejoin:round;}
	.st6{fill:#FFFFFF;}

  [data-mantine-color-scheme='dark'] .st2 {
    stroke: var(--mantine-color-dark-filled);
  }
  [data-mantine-color-scheme='dark'] .st3 {
    fill: var(--mantine-color-dark-filled);
  }
  [data-mantine-color-scheme='dark'] .st5 {
    stroke: var(--mantine-color-dark-filled);
  }
  [data-mantine-color-scheme='dark'] .st6 {
    fill: var(--mantine-color-dark-filled);
  }
</style>
<g id="Layer_2" class="st0">
	<rect class="st1" width="42" height="42"/>
</g>
<g id="home" class="st0">
	<path class="st2" d="M14.9,39.4V27.1c0-1.1,0.4-2.1,1.2-2.9c0.8-0.8,1.8-1.2,2.9-1.2H23c1.1,0,2.1,0.4,2.9,1.2
		c0.8,0.8,1.2,1.8,1.2,2.9v12.2 M6.7,21H2.6L21,2.6L39.4,21h-4.1v14.3c0,1.1-0.4,2.1-1.2,2.9s-1.8,1.2-2.9,1.2H10.8
		c-1.1,0-2.1-0.4-2.9-1.2c-0.8-0.8-1.2-1.8-1.2-2.9V21z"/>
	<path class="st3" d="M15.1,39.7l0.8-15.3h10.2l0.7,15.3l8.5-1.9c0,0,0.3-12.2,0.3-12.3c0-0.1,0.2-4.5,0.2-4.5h4L21,2.3L2,21.1
		L6.3,22l0.2,16l1.9,1.7H15.1z"/>
</g>
<g id="Articles">
	<path id="Articles_outlines" class="st4" d="M30.1,7.3H37c0.6,0,1.2,0.2,1.6,0.7c0.4,0.4,0.7,1,0.7,1.6v25.1c0,1.2-0.5,2.4-1.3,3.2
		s-2,1.3-3.2,1.3 M34.7,39.3c-1.2,0-2.4-0.5-3.2-1.3c-0.9-0.9-1.3-2-1.3-3.2V5c0-0.6-0.2-1.2-0.7-1.6s-1-0.7-1.6-0.7H5
		C4.4,2.7,3.8,3,3.4,3.4S2.7,4.4,2.7,5v27.4c0,1.8,0.7,3.6,2,4.8s3,2,4.8,2H34.7z M11.9,11.9H21 M11.9,21H21 M11.9,30.1H21"/>
	<path id="Articles_outlines_1_" class="st5" d="M30.1,7.3H37c0.6,0,1.2,0.2,1.6,0.7c0.4,0.4,0.7,1,0.7,1.6v25.1
		c0,1.2-0.5,2.4-1.3,3.2s-2,1.3-3.2,1.3 M34.7,39.3c-1.2,0-2.4-0.5-3.2-1.3c-0.9-0.9-1.3-2-1.3-3.2V5c0-0.6-0.2-1.2-0.7-1.6
		s-1-0.7-1.6-0.7H5C4.4,2.7,3.8,3,3.4,3.4S2.7,4.4,2.7,5v27.4c0,1.8,0.7,3.6,2,4.8s3,2,4.8,2H34.7z"/>
	<path class="st6" d="M31.3,14.5V3.6l-1.8-1.7L13.6,1.5L4.2,1.6L1.9,3.7L1.7,24.3l0.4,10.2l2.1,3.8l1.9,1l7.9,0.7l17.2-0.2l0.3-4
		L31.3,14.5z M21,32.1h-9.1c-0.5,0-1-0.2-1.4-0.6c-0.4-0.4-0.6-0.9-0.6-1.4c0-1.1,0.9-2,2-2H21c0.5,0,1,0.2,1.4,0.6
		c0.4,0.4,0.6,0.9,0.6,1.4C23,31.2,22.1,32.1,21,32.1z M21,23h-9.1c-0.5,0-1-0.2-1.4-0.6c-0.4-0.4-0.6-0.9-0.6-1.4c0-1.1,0.9-2,2-2
		H21c0.5,0,1,0.2,1.4,0.6c0.4,0.4,0.6,0.9,0.6,1.4C23,22.1,22.1,23,21,23z M21,13.9h-9.1c-0.5,0-1-0.2-1.4-0.6
		c-0.4-0.4-0.6-0.9-0.6-1.4c0-1.1,0.9-2,2-2H21c0.5,0,1,0.2,1.4,0.6c0.4,0.4,0.6,0.9,0.6,1.4C23,13,22.1,13.9,21,13.9z"/>
</g>
<g id="Ressources" class="st0">
	<path id="ressources_outlines" class="st2" d="M5,34.7c0,1.2,0.5,2.4,1.3,3.2s2,1.3,3.2,1.3H37V2.7H9.6c-1.2,0-2.4,0.5-3.2,1.3
		S5,6.1,5,7.3V34.7z M5,34.7c0-1.2,0.5-2.4,1.3-3.2c0.9-0.9,2-1.3,3.2-1.3H37 M14.2,11.9h13.7"/>
	<path id="ressources_outlines_1_" class="st5" d="M5,34.7c0,1.2,0.5,2.4,1.3,3.2s2,1.3,3.2,1.3H37V2.7H9.6c-1.2,0-2.4,0.5-3.2,1.3
		S5,6.1,5,7.3V34.7z M5,34.7c0-1.2,0.5-2.4,1.3-3.2c0.9-0.9,2-1.3,3.2-1.3H37"/>
	<path class="st6" d="M31,1.9L14.3,2.3L8.9,2.5L6.6,3.9L4.9,5.7L4.2,33.2l2.4-1.4l2.6-1.2l9.4-0.2l18.9,0.4V2.5L31,1.9z M29.3,13.3
		c-0.4,0.4-0.9,0.6-1.4,0.6H14.2c-1.1,0-2-0.9-2-2c0-0.5,0.2-1,0.6-1.4s0.9-0.6,1.4-0.6h13.7c1.1,0,2,0.9,2,2
		C29.8,12.4,29.6,12.9,29.3,13.3z"/>
</g>
<g id="Layer_5" class="st0">
	<path id="smoothies_outlines" class="st2" d="M31.1,16.9c0-2.7-1.1-5.3-3-7.2c-1.9-1.9-4.5-3-7.2-3 M31.1,16.9H10.9 M31.1,16.9
		c0.5,0,1.1,0.2,1.4,0.6c0.4,0.4,0.6,0.9,0.6,1.4v2c0,0.5-0.2,1.1-0.6,1.4c-0.4,0.4-0.9,0.6-1.4,0.6 M21,6.8c-2.7,0-5.3,1.1-7.2,3
		c-1.9,1.9-3,4.5-3,7.2 M21,6.8V2.7 M10.9,16.9c-0.5,0-1.1,0.2-1.4,0.6C9,17.9,8.8,18.4,8.8,19v2c0,0.5,0.2,1.1,0.6,1.4
		c0.4,0.4,0.9,0.6,1.4,0.6 M31.1,23H10.9 M31.1,23l-3.7,14.7c-0.1,0.4-0.4,0.8-0.7,1.1c-0.4,0.3-0.8,0.4-1.2,0.4h-9
		c-0.5,0-0.9-0.2-1.2-0.4c-0.4-0.3-0.6-0.7-0.7-1.1L10.9,23"/>
	<path id="smoothies_full" class="st6" d="M27.2,39.1l-1.7,0.9h-6.8L15,39.4l-1.5-1.8l-3.2-14.3l-1.8-1.5l-0.4-2.6l0.4-1.9l5.3-0.8
		h18.5l1.4,0.9l0.7,2c0,0-0.2,1.7-0.3,1.9c-0.1,0.3-1,2.3-1,2.3l-2.3,1.2l-0.6,5.3l-1.3,6.5L27.2,39.1z"/>
</g>
</svg>
