<?xml version="1.0" encoding="utf-8"?>
<!-- Generator: Adobe Illustrator 24.3.0, SVG Export Plug-In . SVG Version: 6.00 Build 0)  -->
<svg version="1.1" xmlns="http://www.w3.org/2000/svg" xmlns:xlink="http://www.w3.org/1999/xlink" x="0px" y="0px"
	 viewBox="0 0 42 42" style="enable-background:new 0 0 42 42;" xml:space="preserve">
<style type="text/css">
	.st0{display:none;}

	.st4{fill:none;stroke:#FFFFFF;stroke-width:4;stroke-linecap:round;stroke-linejoin:round;}
	.st5{display:inline;fill:#FFFFFF;stroke:#FFFFFF;stroke-width:0}

</style>
<g id="Layer_2" class="st0">
	<rect class="st1" width="42" height="42"/>
</g>



<g id="smoothies">
	<path id="smoothies_outlines" class="st4" d="M31.1,16.9c0-2.7-1.1-5.3-3-7.2c-1.9-1.9-4.5-3-7.2-3 M31.1,16.9H10.9 M31.1,16.9
		c0.5,0,1.1,0.2,1.4,0.6c0.4,0.4,0.6,0.9,0.6,1.4v2c0,0.5-0.2,1.1-0.6,1.4c-0.4,0.4-0.9,0.6-1.4,0.6 M21,6.8c-2.7,0-5.3,1.1-7.2,3
		c-1.9,1.9-3,4.5-3,7.2 M21,6.8V2.7 M10.9,16.9c-0.5,0-1.1,0.2-1.4,0.6C9,17.9,8.8,18.4,8.8,19v2c0,0.5,0.2,1.1,0.6,1.4
		c0.4,0.4,0.9,0.6,1.4,0.6 M31.1,23H10.9 M31.1,23l-3.7,14.7c-0.1,0.4-0.4,0.8-0.7,1.1c-0.4,0.3-0.8,0.4-1.2,0.4h-9
		c-0.5,0-0.9-0.2-1.2-0.4c-0.4-0.3-0.6-0.7-0.7-1.1L10.9,23"/>
	<path id="smoothies_full" class="st5" d="M27.2,39.1l-1.7,0.9h-6.8L15,39.4l-1.5-1.8l-3.2-14.3l-1.8-1.5l-0.4-2.6l0.4-1.9l5.3-0.8
		h18.5l1.4,0.9l0.7,2c0,0-0.2,1.7-0.3,1.9c-0.1,0.3-1,2.3-1,2.3l-2.3,1.2l-0.6,5.3l-1.3,6.5L27.2,39.1z"/>
</g>
</svg>
