<svg version="1.1" xmlns="http://www.w3.org/2000/svg" xmlns:xlink="http://www.w3.org/1999/xlink" x="0px" y="0px" viewBox="0 0 350 350" style="enable-background:new 0 0 1000 1000;" xml:space="preserve" width="350" height="350">
  <style type="text/css">
    .st1{display:inline;}
	.st2{display:inline;fill:#FFFAF1;}
	.st3{fill:#D1D3D4;}
	.st4{fill:#BCBEC0;}
	.st5{fill:#98989B;}
	.st6{opacity:0.35;}
	.st7{fill:#B5D5E5;}
	.st8{fill:#FFFFFF;}
	.st9{fill:#C7C8CA;}
	.st10{opacity:0.4;fill:#FFFFFF;}
	.st11{fill:#77787A;}
  </style>
  <g id="mixeur">
    <path id="pied" class="st3" d="M128.135 317.975H123.9a4.855 4.855 0 0 1 -4.865 -4.865v-5.635h14v5.635c-0.035 2.66 -2.205 4.865 -4.9 4.865z"/>
    <path x="340" y="878.5" class="st4" width="40" height="3" d="M119 307.475h14v1.05h-14v-1.05z"/>
    <path id="pied_1_" class="st3" d="M226.135 317.975H221.9a4.855 4.855 0 0 1 -4.865 -4.865v-5.635h14v5.635c-0.035 2.66 -2.205 4.865 -4.9 4.865z"/>
    <path x="620" y="878.5" class="st4" width="40" height="3" d="M217 307.475h14v1.05h-14v-1.05z"/>
    <path id="couvercle" class="st4" d="M249.375 44.975h-148.75a5.243 5.243 0 0 1 -5.25 -5.25v-3.5a5.243 5.243 0 0 1 5.25 -5.25h148.75a5.243 5.243 0 0 1 5.25 5.25v3.5a5.243 5.243 0 0 1 -5.25 5.25z"/>
    <path class="st5" d="M261.8 245.945v1.05c0.385 0 0.7 0.315 0.7 0.7v51.03c0 4.83 -3.92 8.75 -8.75 8.75h-157.5c-4.83 0 -8.75 -3.92 -8.75 -8.75v-51.03c0 -0.385 0.315 -0.7 0.7 -0.7v-1.05a0.702 0.702 0 0 1 -0.7 -0.7v-0.77c0 -13.545 10.955 -24.5 24.5 -24.5h126c13.545 0 24.5 10.955 24.5 24.5v0.77c0 0.385 -0.315 0.7 -0.7 0.7z"/>
    <path id="barre_milieu" class="st4" d="M180.25 219.975h-10.5v-99.75c0 -2.905 2.345 -5.25 5.25 -5.25s5.25 2.345 5.25 5.25v99.75z"/>
    <g id="vitre" class="st6">
      <path class="st7" points="712.5,128.5 680,628.5 320,628.5 316.3,572.3 313.6,529.6 293.3,217.7 291.3,187.7 287.5,128.5 		" d="m249.375 44.975 -11.375 175H112l-1.295 -19.67 -0.945 -14.945 -7.105 -109.165 -0.7 -10.5 -1.33 -20.72Z"/>
    </g>
    <path id="poignée" class="st4" d="M110.705 200.305 78.89 171.85a5.289 5.289 0 0 1 -1.75 -3.535L70.7 76.195l-0.35 -4.9a5.243 5.243 0 0 1 5.25 -5.6h26.355l0.7 10.5h-20.65c-0.42 0 -0.735 0.35 -0.7 0.735l6.09 87.08c0.07 0.91 0.49 1.75 1.155 2.38l21.21 18.97 0.945 14.945z"/>
    <path id="bouton_milieu_1_" class="st8" cx="500.1" cy="783.5" r="50" d="M192.535 274.225a17.5 17.5 0 0 1 -17.5 17.5 17.5 17.5 0 0 1 -17.5 -17.5 17.5 17.5 0 0 1 35 0z"/>
    <path id="reflet_bouton_milieu" class="st9" d="M190.26 280.315c0.35 -1.4 0.56 -2.835 0.56 -4.34 0 -9.66 -7.84 -17.5 -17.5 -17.5 -1.715 0 -3.395 0.245 -4.97 0.7a16.56 16.56 0 0 1 6.3 -1.225c9.17 0 16.625 7.455 16.625 16.625 0 1.995 -0.35 3.955 -1.015 5.74z"/>
    <path id="bouton_droite_1_" class="st8" cx="590.1" cy="803.5" r="30" d="M217.035 281.225a10.5 10.5 0 0 1 -10.5 10.5 10.5 10.5 0 0 1 -10.5 -10.5 10.5 10.5 0 0 1 21 0z"/>
    <path id="reflet_bouton_droite" class="st9" d="M215.985 283.255c0.035 -0.315 0.035 -0.665 0.035 -1.015 0 -5.81 -4.69 -10.5 -10.5 -10.5 -0.35 0 -0.665 0 -1.015 0.035 0.665 -0.14 1.365 -0.21 2.065 -0.21 5.32 0 9.625 4.305 9.625 9.625 0.035 0.735 -0.035 1.4 -0.21 2.065z"/>
    <path id="bouton_gauche" class="st8" cx="410.1" cy="803.5" r="30" d="M154.035 281.225a10.5 10.5 0 0 1 -10.5 10.5 10.5 10.5 0 0 1 -10.5 -10.5 10.5 10.5 0 0 1 21 0z"/>
    <path id="reflet_bouton_gauche" class="st9" d="M152.95 283.255c0.035 -0.315 0.035 -0.665 0.035 -1.015 0 -5.81 -4.69 -10.5 -10.5 -10.5 -0.35 0 -0.665 0 -1.015 0.035 0.665 -0.14 1.365 -0.21 2.065 -0.21 5.32 0 9.625 4.305 9.625 9.625 0.035 0.735 -0.07 1.4 -0.21 2.065z"/>
    <path id="reflet_vitre" class="st10" points="418,628.5 355,628.5 351,578.5 349.2,535.2 336.3,218.5 335.1,188.1 332.7,128.5
		412.5,128.5 	" d="M146.3 219.975h-22.05l-1.4 -17.5 -0.63 -15.155 -4.515 -110.845 -0.42 -10.64 -0.84 -20.86h27.93Z"/>
    <path id="reflet_vitre_1_" class="st10" points="436.4,628.5 428,628.5 427.5,578.5 427.2,535.2 425.5,218.5 425.3,188.1
		425,128.5 435.7,128.5 	" d="M152.74 219.975h-2.94l-0.175 -17.5 -0.105 -15.155 -0.595 -110.845 -0.07 -10.64 -0.105 -20.86h3.745Z"/>
    <path x="252" y="702.7" class="st11" width="496" height="3" d="M88.2 245.945h173.6v1.05H88.2v-1.05z"/>
  </g>
</svg>
